<?xml version="1.0" encoding="UTF-8"?>
<!-- Creator: CorelDRAW -->
<svg xmlns="http://www.w3.org/2000/svg" xml:space="preserve" width="61.02mm" height="12.745mm"
    version="1.1"
    style="shape-rendering:geometricPrecision; text-rendering:geometricPrecision; image-rendering:optimizeQuality; fill-rule:evenodd; clip-rule:evenodd"
    viewBox="0 0 6102 1274.5"
    xmlns:xlink="http://www.w3.org/1999/xlink"
    xmlns:xodm="http://www.corel.com/coreldraw/odm/2003"
    aria-hidden="true">
 <defs>
  <style type="text/css">
   <![CDATA[
    .fil1 {fill:#18181B;fill-rule:nonzero}
    .fil0 {fill:url(#id0)}
   ]]>
  </style>
  <linearGradient id="id0" gradientUnits="userSpaceOnUse" x1="614.93" y1="1143.36" x2="614.93" y2="6.21">
   <stop offset="0" style="stop-opacity:1; stop-color:#4CA2CD"/>
   <stop offset="0.301961" style="stop-opacity:1; stop-color:#40BAB3"/>
   <stop offset="1" style="stop-opacity:1; stop-color:#34D399"/>
  </linearGradient>
 </defs>
 <g id="Слой_x0020_1">
  <metadata id="CorelCorpID_0Corel-Layer"/>
  <path class="fil0" d="M1206.39 799.46l-393.1 -680.82c-41.21,-67.82 -114.68,-112.44 -198.58,-112.44 -83.89,0 -157.37,44.62 -197.99,111.41l-0.58 1.03 -393.1 680.24c-18.49,32.53 -29.39,71.45 -29.39,112.92 0,126.83 101.96,229.84 228.38,231.55l0.16 0 785.04 0c0.29,0 0.63,0 0.97,0 66.3,0 125.94,-28.5 167.34,-73.92l0.16 -0.18c37.53,-41.01 60.51,-95.87 60.51,-156.09 0,-41.79 -11.06,-80.99 -30.42,-114.83l0.6 1.14 0 -0.01zm-468.36 -636.82l393.1 680.82c12.48,20.54 19.87,45.37 19.87,71.93 0,23.19 -5.64,45.06 -15.61,64.33l0.37 -0.79 -475.31 -335.2 0 -545.94c33.45,11.41 60.53,34.16 77.22,63.57l0.36 0.7 0 0.58zm-636.83 680.82l390.2 -681.4c17.58,-30.5 45.52,-53.36 78.91,-63.99l0.98 -0.27 0 546.51 -477.62 334.62c-9.75,-18.56 -15.48,-40.55 -15.48,-63.88 0,-26.66 7.48,-51.59 20.46,-72.77l-0.35 0.61 2.9 0.57zm123.89 213.63c-23.87,-0.02 -46.38,-5.8 -66.24,-16.01l0.82 0.38 281.36 -198 173.68 -123.31 456.2 321.31c-18.47,9.49 -40.31,15.05 -63.45,15.05 -0.08,0 -0.16,0 -0.24,0l0.01 0 -782.14 0.58z"/>
  <path class="fil1" d="M1877.05 1057.35c-25.36,0 -44.8,-7.16 -58.3,-21.48 -13.5,-14.32 -20.25,-34.16 -20.25,-59.53l0 -662.8 -239.35 0c-21.27,0 -37.84,-5.93 -49.7,-17.79 -11.87,-11.87 -17.8,-28.03 -17.8,-48.48 0,-21.28 5.93,-37.44 17.8,-48.49 11.86,-11.04 28.43,-16.57 49.7,-16.57l635.8 0c21.27,0 37.84,5.53 49.71,16.57 11.86,11.05 17.8,27.21 17.8,48.49 0,20.45 -5.94,36.61 -17.8,48.48 -11.87,11.86 -28.44,17.79 -49.71,17.79l-239.34 0 0 662.8c0,25.37 -6.55,45.21 -19.64,59.53 -13.1,14.32 -32.73,21.48 -58.92,21.48z"/>
  <path id="_1" class="fil1" d="M2320.14 1057.35c-25.36,0 -44.8,-6.75 -58.3,-20.25 -13.5,-13.5 -20.25,-32.94 -20.25,-58.3l0 -463.96c0,-25.37 6.55,-44.6 19.64,-57.69 13.09,-13.09 31.5,-19.64 55.23,-19.64 23.73,0 42.14,6.55 55.24,19.64 13.09,13.09 19.63,32.32 19.63,57.69l0 77.32 -12.27 0c11.46,-49.09 33.96,-86.32 67.51,-111.69 33.55,-25.37 78.14,-40.5 133.78,-45.41 17.19,-1.64 30.89,2.66 41.12,12.89 10.23,10.22 16.16,25.98 17.8,47.25 1.64,20.46 -3.07,37.03 -14.12,49.71 -11.04,12.68 -27.61,20.25 -49.71,22.71l-27 2.45c-49.91,4.91 -87.55,20.25 -112.92,46.03 -25.37,25.77 -38.05,61.98 -38.05,108.62l0 254.08c0,25.36 -6.55,44.8 -19.64,58.3 -13.09,13.5 -32.32,20.25 -57.69,20.25z"/>
  <path id="_2" class="fil1" d="M2798.83 1056.12c-24.55,0 -43.37,-7.36 -56.46,-22.09 -13.09,-14.73 -19.64,-35.19 -19.64,-61.37l0 -450.46c0,-27 6.55,-47.66 19.64,-61.98 13.09,-14.32 31.91,-21.48 56.46,-21.48 24.55,0 43.57,7.16 57.07,21.48 13.51,14.32 20.26,34.98 20.26,61.98l0 450.46c0,26.18 -6.55,46.64 -19.64,61.37 -13.09,14.73 -32.32,22.09 -57.69,22.09zm0 -731.53c-28.64,0 -50.94,-7.16 -66.89,-21.48 -15.96,-14.32 -23.94,-34.16 -23.94,-59.53 0,-26.18 7.98,-46.23 23.94,-60.14 15.95,-13.91 38.25,-20.87 66.89,-20.87 29.46,0 51.96,6.96 67.51,20.87 15.54,13.91 23.32,33.96 23.32,60.14 0,25.37 -7.78,45.21 -23.32,59.53 -15.55,14.32 -38.05,21.48 -67.51,21.48z"/>
  <path id="_3" class="fil1" d="M3233.33 1059.8c-43.37,0 -82.03,-8.38 -115.99,-25.16 -33.95,-16.77 -60.55,-39.48 -79.78,-68.12 -19.23,-28.64 -28.84,-60.96 -28.84,-96.96 0,-44.19 11.45,-79.17 34.37,-104.95 22.91,-25.77 60.14,-44.39 111.69,-55.84 51.55,-11.46 120.69,-17.19 207.43,-17.19l61.37 0 0 88.38 -60.14 0c-50.74,0 -91.24,2.45 -121.52,7.36 -30.27,4.91 -51.75,13.3 -64.43,25.16 -12.69,11.87 -19.03,28.44 -19.03,49.71 0,27.01 9.41,49.1 28.23,66.28 18.82,17.19 45.01,25.78 78.55,25.78 27.01,0 50.94,-6.34 71.81,-19.03 20.86,-12.68 37.43,-30.07 49.71,-52.16 12.27,-22.09 18.41,-47.46 18.41,-76.1l0 -141.15c0,-40.91 -9,-70.37 -27,-88.37 -18.01,-18.01 -48.28,-27.01 -90.83,-27.01 -23.73,0 -49.3,2.87 -76.71,8.59 -27.42,5.73 -56.26,15.55 -86.54,29.46 -15.54,7.37 -29.25,9.41 -41.11,6.14 -11.87,-3.27 -21.07,-10.02 -27.62,-20.25 -6.55,-10.23 -9.82,-21.48 -9.82,-33.76 0,-12.27 3.27,-24.34 9.82,-36.2 6.55,-11.87 17.59,-20.67 33.14,-26.39 37.64,-15.55 73.85,-26.6 108.62,-33.14 34.78,-6.55 66.49,-9.82 95.13,-9.82 58.91,0 107.4,9 145.44,27 38.05,18 66.49,45.21 85.31,81.62 18.82,36.42 28.23,83.26 28.23,140.54l0 294.58c0,25.36 -6.14,44.8 -18.41,58.3 -12.28,13.5 -29.87,20.25 -52.78,20.25 -22.91,0 -40.71,-6.75 -53.39,-20.25 -12.69,-13.5 -19.03,-32.94 -19.03,-58.3l0 -58.92 9.82 0c-5.73,28.64 -16.98,53.39 -33.75,74.26 -16.78,20.86 -37.85,37.02 -63.21,48.48 -25.37,11.46 -54.42,17.18 -87.15,17.18z"/>
  <path id="_4" class="fil1" d="M3783.2 1057.35c-24.55,0 -43.37,-6.75 -56.46,-20.25 -13.08,-13.5 -19.63,-32.94 -19.63,-58.3l0 -463.96c0,-25.37 6.55,-44.6 19.63,-57.69 13.09,-13.09 31.5,-19.64 55.23,-19.64 23.73,0 42.14,6.55 55.24,19.64 13.09,13.09 19.63,32.32 19.63,57.69l0 83.46 -13.5 -30.68c18,-43.37 46.03,-76.31 84.08,-98.81 38.05,-22.5 81.21,-33.75 129.49,-33.75 48.28,0 87.96,9 119.06,27 31.09,18 54.41,45.21 69.96,81.62 15.55,36.42 23.32,82.44 23.32,138.08l0 297.04c0,25.36 -6.55,44.8 -19.64,58.3 -13.09,13.5 -31.91,20.25 -56.46,20.25 -24.55,0 -43.57,-6.75 -57.07,-20.25 -13.5,-13.5 -20.25,-32.94 -20.25,-58.3l0 -289.67c0,-46.64 -8.8,-80.6 -26.39,-101.88 -17.6,-21.27 -44.8,-31.91 -81.63,-31.91 -45,0 -80.8,14.12 -107.39,42.35 -26.6,28.23 -39.89,65.66 -39.89,112.3l0 268.81c0,52.36 -25.78,78.55 -77.33,78.55z"/>
  <path id="_5" class="fil1" d="M4704.98 1280.74c-44.19,0 -86.94,-4.1 -128.27,-12.28 -41.32,-8.18 -78.75,-20.86 -112.3,-38.05 -15.55,-8.18 -25.98,-18 -31.3,-29.45 -5.32,-11.46 -6.96,-23.12 -4.91,-34.99 2.05,-11.86 6.95,-22.29 14.73,-31.29 7.77,-9.01 17.39,-15.14 28.84,-18.42 11.46,-3.27 23.32,-1.63 35.6,4.91 36,18.01 70.16,29.67 102.48,34.98 32.33,5.32 59.94,7.98 82.85,7.98 54.83,0 95.95,-13.29 123.36,-39.89 27.41,-26.59 41.12,-66.07 41.12,-118.44l0 -110.47 11.04 0c-12.27,41.73 -37.84,75.08 -76.71,100.04 -38.87,24.95 -82.85,37.43 -131.95,37.43 -54,0 -101.05,-12.48 -141.15,-37.43 -40.09,-24.96 -71.19,-59.94 -93.28,-104.95 -22.09,-45 -33.14,-97.37 -33.14,-157.1 0,-45.01 6.34,-85.72 19.03,-122.13 12.68,-36.41 30.68,-67.71 54,-93.9 23.32,-26.18 51.55,-46.43 84.69,-60.75 33.14,-14.32 69.76,-21.48 109.85,-21.48 50.74,0 95.13,12.48 133.18,37.43 38.05,24.96 62.8,57.9 74.26,98.81l-12.28 30.68 0 -87.14c0,-25.37 6.75,-44.6 20.25,-57.69 13.5,-13.09 32.12,-19.64 55.85,-19.64 24.55,0 43.37,6.55 56.46,19.64 13.09,13.09 19.64,32.32 19.64,57.69l0 472.55c0,97.37 -25.78,170.61 -77.33,219.7 -51.55,49.1 -126.42,73.65 -224.61,73.65zm-3.68 -364.54c31.91,0 59.32,-7.37 82.23,-22.1 22.91,-14.72 40.71,-35.79 53.39,-63.21 12.69,-27.41 19.03,-59.93 19.03,-97.57 0,-56.46 -13.91,-100.86 -41.73,-133.18 -27.82,-32.32 -65.46,-48.48 -112.92,-48.48 -31.92,0 -59.33,7.36 -82.24,22.09 -22.91,14.73 -40.71,35.6 -53.39,62.6 -12.68,27 -19.03,59.33 -19.03,96.97 0,56.46 13.91,101.05 41.74,133.78 27.82,32.73 65.46,49.1 112.92,49.1z"/>
  <path id="_6" class="fil1" d="M5371.46 1059.8c-67.92,0 -119.06,-19.43 -153.43,-58.3 -34.37,-38.87 -51.55,-95.94 -51.55,-171.22l0 -580.56c0,-25.37 6.55,-44.6 19.64,-57.69 13.09,-13.09 31.91,-19.64 56.46,-19.64 24.55,0 43.57,6.55 57.07,19.64 13.51,13.09 20.26,32.32 20.26,57.69l0 573.2c0,37.64 7.97,65.46 23.93,83.46 15.96,18 38.66,27 68.12,27 6.55,0 12.68,-0.2 18.41,-0.61 5.73,-0.41 11.46,-1.02 17.19,-1.84 11.45,-1.64 19.22,1.43 23.32,9.2 4.09,7.78 6.13,23.53 6.13,47.26 0,20.45 -4.09,36.41 -12.27,47.87 -8.18,11.45 -21.68,18.41 -40.5,20.86 -8.19,0.82 -16.78,1.64 -25.78,2.46 -9,0.81 -18,1.22 -27,1.22z"/>
  <path id="_7" class="fil1" d="M5847.68 1059.8c-67.91,0 -126.42,-12.68 -175.51,-38.05 -49.1,-25.36 -86.94,-61.37 -113.54,-108.01 -26.59,-46.64 -39.89,-101.87 -39.89,-165.7 0,-62.18 12.89,-116.6 38.66,-163.24 25.78,-46.64 61.37,-83.26 106.79,-109.85 45.41,-26.6 97.17,-39.89 155.26,-39.89 42.55,0 80.81,6.95 114.77,20.86 33.95,13.91 63,33.96 87.14,60.15 24.14,26.18 42.55,57.89 55.23,95.12 12.69,37.23 19.03,79.17 19.03,125.81 0,14.73 -5.11,25.98 -15.34,33.75 -10.23,7.77 -24.76,11.66 -43.58,11.66l-393.99 0 0 -88.37 344.9 0 -19.64 18.41c0,-37.64 -5.52,-69.14 -16.57,-94.51 -11.05,-25.37 -27,-44.8 -47.87,-58.3 -20.86,-13.5 -46.84,-20.25 -77.94,-20.25 -34.37,0 -63.62,7.97 -87.76,23.93 -24.14,15.96 -42.55,38.46 -55.23,67.51 -12.68,29.05 -19.03,63.62 -19.03,103.71l0 8.59c0,67.1 15.76,117.22 47.26,150.36 31.5,33.14 77.94,49.71 139.31,49.71 21.27,0 45.21,-2.66 71.8,-7.98 26.6,-5.32 51.76,-14.52 75.49,-27.61 17.18,-9.82 32.32,-14.12 45.41,-12.89 13.09,1.23 23.53,5.93 31.3,14.11 7.77,8.19 12.48,18.21 14.11,30.08 1.64,11.86 -0.61,23.93 -6.75,36.2 -6.13,12.28 -16.57,22.91 -31.29,31.92 -28.64,18 -61.58,31.29 -98.81,39.89 -37.23,8.59 -71.8,12.88 -103.72,12.88z"/>
 </g>
</svg>