<?xml version="1.0" encoding="UTF-8"?>
<!-- Creator: CorelDRAW -->
<svg xmlns="http://www.w3.org/2000/svg" xml:space="preserve" width="100mm" height="20mm" version="1.1"
     shape-rendering="geometricPrecision" text-rendering="geometricPrecision" image-rendering="optimizeQuality"
     fill-rule="evenodd" clip-rule="evenodd"
     viewBox="0 0 10000 2000"
     aria-hidden="true">
 <defs>
   <linearGradient id="id0" gradientUnits="userSpaceOnUse" x1="955.85" y1="1575.89" x2="955.85" y2="368.52">
    <stop offset="0" stop-opacity="1" stop-color="#4CA2CD"/>
       <stop offset="0.301961" stop-opacity="1" stop-color="#40BAB3"/>
       <stop offset="1" stop-opacity="1" stop-color="#34D399"/>
   </linearGradient>
 </defs>
    <g>
        <path fill="url(#id0)"
              d="M1583.83 1210.76l-417.37 -722.86c-43.75,-72.01 -121.76,-119.38 -210.84,-119.38 -89.08,0 -167.09,47.37 -210.22,118.29l-0.62 1.09 -417.37 722.25c-19.63,34.52 -31.2,75.85 -31.2,119.88 0,134.66 108.25,244.04 242.48,245.85l0.17 0 833.52 0c0.3,0 0.66,0 1.02,0 70.4,0 133.72,-30.26 177.68,-78.49l0.17 -0.19c39.84,-43.54 64.25,-101.78 64.25,-165.73 0,-44.36 -11.75,-85.98 -32.31,-121.91l0.64 1.2 0 0zm-497.28 -676.15l417.37 722.87c13.26,21.8 21.1,48.17 21.1,76.36 0,24.62 -5.98,47.85 -16.57,68.3l0.39 -0.83 -504.66 -355.9 0 -579.64c35.52,12.1 64.26,36.26 81.99,67.49l0.38 0.74 0 0.61zm-676.15 722.87l414.3 -723.48c18.66,-32.39 48.32,-56.66 83.77,-67.94l1.05 -0.29 0 580.26 -507.11 355.28c-10.36,-19.7 -16.44,-43.05 -16.44,-67.82 0,-28.32 7.94,-54.78 21.73,-77.27l-0.37 0.64 3.07 0.62zm131.54 226.82c-25.34,-0.03 -49.24,-6.16 -70.32,-17.01l0.86 0.41 298.74 -210.22 184.4 -130.93 484.37 341.15c-19.62,10.07 -42.8,15.98 -67.37,15.98 -0.09,0 -0.17,0 -0.26,0l0.02 0 -830.44 0.62z"/>
        <path fill="#E6E7E8" fill-rule="nonzero"
              d="M2269.85 1417.3c-26.03,0 -45.97,-7.35 -59.83,-22.05 -13.85,-14.69 -20.78,-35.05 -20.78,-61.08l0 -680.17 -245.61 0c-21.84,0 -38.84,-6.08 -51.02,-18.26 -12.17,-12.18 -18.26,-28.76 -18.26,-49.75 0,-21.84 6.09,-38.42 18.26,-49.76 12.18,-11.33 29.18,-17 51.02,-17l652.44 0c21.83,0 38.84,5.67 51.01,17 12.18,11.34 18.27,27.92 18.27,49.76 0,20.99 -6.09,37.57 -18.27,49.75 -12.17,12.18 -29.18,18.26 -51.01,18.26l-245.6 0 0 680.17c0,26.03 -6.72,46.39 -20.16,61.08 -13.43,14.7 -33.59,22.05 -60.46,22.05z"/>
        <path id="_1" fill="#E6E7E8" fill-rule="nonzero"
              d="M2724.54 1417.3c-26.03,0 -45.97,-6.93 -59.83,-20.79 -13.85,-13.85 -20.78,-33.79 -20.78,-59.83l0 -476.11c0,-26.03 6.72,-45.76 20.15,-59.2 13.44,-13.43 32.33,-20.15 56.68,-20.15 24.36,0 43.25,6.72 56.68,20.15 13.44,13.44 20.16,33.17 20.16,59.2l0 79.35 -12.6 0c11.76,-50.38 34.85,-88.59 69.28,-114.62 34.43,-26.03 80.19,-41.56 137.29,-46.6 17.63,-1.68 31.7,2.73 42.2,13.22 10.49,10.5 16.58,26.67 18.26,48.5 1.68,20.99 -3.15,37.99 -14.49,51.01 -11.33,13.02 -28.34,20.78 -51.01,23.3l-27.71 2.52c-51.22,5.04 -89.85,20.78 -115.88,47.23 -26.03,26.46 -39.04,63.61 -39.04,111.48l0 260.72c0,26.04 -6.72,45.98 -20.16,59.83 -13.43,13.86 -33.17,20.79 -59.2,20.79z"/>
        <path id="_2" fill="#E6E7E8" fill-rule="nonzero"
              d="M3215.77 1416.04c-25.19,0 -44.5,-7.56 -57.94,-22.68 -13.43,-15.11 -20.15,-36.1 -20.15,-62.97l0 -462.26c0,-27.71 6.72,-48.91 20.15,-63.61 13.44,-14.69 32.75,-22.04 57.94,-22.04 25.2,0 44.72,7.35 58.57,22.04 13.86,14.7 20.79,35.9 20.79,63.61l0 462.26c0,26.87 -6.72,47.86 -20.16,62.97 -13.43,15.12 -33.16,22.68 -59.2,22.68zm0 -750.7c-29.39,0 -52.27,-7.35 -68.64,-22.04 -16.38,-14.7 -24.56,-35.06 -24.56,-61.09 0,-26.87 8.18,-47.45 24.56,-61.72 16.37,-14.28 39.25,-21.41 68.64,-21.41 30.23,0 53.33,7.13 69.28,21.41 15.95,14.27 23.93,34.85 23.93,61.72 0,26.03 -7.98,46.39 -23.93,61.09 -15.95,14.69 -39.05,22.04 -69.28,22.04z"/>
        <path id="_3" fill="#E6E7E8" fill-rule="nonzero"
              d="M3661.66 1419.82c-44.5,0 -84.18,-8.61 -119.03,-25.83 -34.85,-17.21 -62.14,-40.51 -81.87,-69.9 -19.73,-29.39 -29.6,-62.56 -29.6,-99.51 0,-45.34 11.76,-81.24 35.27,-107.69 23.51,-26.45 61.72,-45.55 114.62,-57.31 52.9,-11.75 123.86,-17.63 212.86,-17.63l62.98 0 0 90.69 -61.72 0c-52.06,0 -93.62,2.52 -124.69,7.55 -31.07,5.04 -53.11,13.65 -66.13,25.82 -13.01,12.18 -19.52,29.18 -19.52,51.02 0,27.71 9.65,50.38 28.97,68.01 19.31,17.64 46.18,26.45 80.61,26.45 27.71,0 52.27,-6.5 73.68,-19.52 21.42,-13.02 38.42,-30.86 51.02,-53.53 12.59,-22.67 18.89,-48.7 18.89,-78.09l0 -144.85c0,-41.99 -9.24,-72.22 -27.71,-90.69 -18.47,-18.48 -49.54,-27.71 -93.21,-27.71 -24.35,0 -50.59,2.94 -78.72,8.82 -28.13,5.87 -57.73,15.95 -88.8,30.22 -15.95,7.56 -30.02,9.66 -42.2,6.3 -12.17,-3.36 -21.62,-10.28 -28.34,-20.78 -6.71,-10.5 -10.07,-22.04 -10.07,-34.64 0,-12.59 3.36,-24.98 10.07,-37.16 6.72,-12.17 18.06,-21.2 34.01,-27.08 38.63,-15.95 75.79,-27.29 111.47,-34 35.69,-6.72 68.23,-10.08 97.62,-10.08 60.46,0 110.21,9.24 149.26,27.71 39.04,18.47 68.22,46.39 87.54,83.76 19.31,37.37 28.97,85.44 28.97,144.22l0 302.29c0,26.04 -6.3,45.98 -18.9,59.83 -12.59,13.86 -30.65,20.79 -54.16,20.79 -23.51,0 -41.77,-6.93 -54.79,-20.79 -13.01,-13.85 -19.52,-33.79 -19.52,-59.83l0 -60.45 10.07 0c-5.87,29.39 -17.42,54.79 -34.63,76.2 -17.22,21.41 -38.84,38 -64.87,49.75 -26.03,11.76 -55.84,17.64 -89.43,17.64z"/>
        <path id="_4" fill="#E6E7E8" fill-rule="nonzero"
              d="M4225.94 1417.3c-25.19,0 -44.5,-6.93 -57.94,-20.79 -13.43,-13.85 -20.15,-33.79 -20.15,-59.83l0 -476.11c0,-26.03 6.72,-45.76 20.15,-59.2 13.44,-13.43 32.33,-20.15 56.68,-20.15 24.36,0 43.25,6.72 56.68,20.15 13.44,13.44 20.16,33.17 20.16,59.2l0 85.65 -13.86 -31.49c18.48,-44.5 47.24,-78.3 86.28,-101.39 39.05,-23.09 83.34,-34.64 132.89,-34.64 49.54,0 90.26,9.24 122.17,27.71 31.91,18.47 55.84,46.39 71.8,83.76 15.95,37.37 23.93,84.6 23.93,141.7l0 304.81c0,26.04 -6.72,45.98 -20.15,59.83 -13.44,13.86 -32.75,20.79 -57.94,20.79 -25.19,0 -44.72,-6.93 -58.57,-20.79 -13.86,-13.85 -20.79,-33.79 -20.79,-59.83l0 -297.25c0,-47.86 -9.02,-82.71 -27.08,-104.55 -18.05,-21.83 -45.97,-32.74 -83.76,-32.74 -46.18,0 -82.92,14.48 -110.21,43.45 -27.29,28.97 -40.93,67.39 -40.93,115.25l0 275.84c0,53.75 -26.45,80.62 -79.36,80.62z"/>
        <path id="_5" fill="#E6E7E8" fill-rule="nonzero"
              d="M5171.87 1646.54c-45.34,0 -89.22,-4.2 -131.62,-12.6 -42.41,-8.4 -80.82,-21.41 -115.25,-39.05 -15.96,-8.39 -26.66,-18.47 -32.12,-30.22 -5.46,-11.76 -7.14,-23.73 -5.04,-35.9 2.1,-12.18 7.14,-22.88 15.12,-32.12 7.97,-9.24 17.84,-15.54 29.59,-18.89 11.76,-3.36 23.94,-1.68 36.53,5.03 36.95,18.48 72.01,30.44 105.18,35.9 33.16,5.46 61.5,8.19 85.02,8.19 56.26,0 98.45,-13.65 126.58,-40.94 28.13,-27.29 42.2,-67.8 42.2,-121.55l0 -113.36 11.33 0c-12.59,42.83 -38.83,77.05 -78.72,102.66 -39.89,25.61 -85.02,38.42 -135.4,38.42 -55.42,0 -103.71,-12.81 -144.85,-38.42 -41.15,-25.61 -73.06,-61.51 -95.73,-107.69 -22.67,-46.19 -34.01,-99.93 -34.01,-161.23 0,-46.18 6.51,-87.96 19.53,-125.32 13.01,-37.37 31.49,-69.49 55.42,-96.36 23.93,-26.87 52.9,-47.65 86.91,-62.35 34,-14.69 71.58,-22.04 112.73,-22.04 52.06,0 97.61,12.81 136.66,38.42 39.05,25.61 64.45,59.41 76.2,101.39l-12.59 31.49 0 -89.43c0,-26.03 6.92,-45.76 20.78,-59.2 13.86,-13.43 32.96,-20.15 57.31,-20.15 25.19,0 44.5,6.72 57.94,20.15 13.44,13.44 20.15,33.17 20.15,59.2l0 484.93c0,99.93 -26.45,175.08 -79.35,225.46 -52.9,50.39 -129.73,75.58 -230.5,75.58zm-3.78 -374.09c32.75,0 60.88,-7.56 84.39,-22.68 23.51,-15.11 41.78,-36.73 54.79,-64.86 13.02,-28.13 19.53,-61.51 19.53,-100.14 0,-57.94 -14.28,-103.49 -42.83,-136.66 -28.55,-33.17 -67.17,-49.75 -115.88,-49.75 -32.75,0 -60.88,7.56 -84.39,22.67 -23.51,15.11 -41.77,36.53 -54.79,64.24 -13.01,27.71 -19.52,60.88 -19.52,99.5 0,57.94 14.27,103.71 42.82,137.29 28.55,33.59 67.18,50.39 115.88,50.39z"/>
        <path id="_6" fill="#E6E7E8" fill-rule="nonzero"
              d="M5855.81 1419.82c-69.7,0 -122.18,-19.95 -157.45,-59.83 -35.26,-39.89 -52.9,-98.46 -52.9,-175.71l0 -595.77c0,-26.03 6.72,-45.77 20.15,-59.2 13.44,-13.44 32.75,-20.16 57.94,-20.16 25.2,0 44.72,6.72 58.57,20.16 13.86,13.43 20.79,33.17 20.79,59.2l0 588.21c0,38.63 8.18,67.18 24.56,85.65 16.37,18.47 39.67,27.71 69.9,27.71 6.72,0 13.02,-0.21 18.9,-0.63 5.87,-0.42 11.75,-1.05 17.63,-1.89 11.76,-1.68 19.73,1.47 23.93,9.45 4.2,7.98 6.3,24.14 6.3,48.49 0,20.99 -4.2,37.37 -12.6,49.12 -8.39,11.76 -22.25,18.9 -41.56,21.42 -8.4,0.84 -17.21,1.68 -26.45,2.52 -9.24,0.84 -18.48,1.26 -27.71,1.26z"/>
        <path id="_7" fill="#E6E7E8" fill-rule="nonzero"
              d="M6344.51 1419.82c-69.7,0 -129.74,-13.02 -180.12,-39.05 -50.38,-26.03 -89.22,-62.98 -116.51,-110.84 -27.29,-47.87 -40.93,-104.55 -40.93,-170.04 0,-63.82 13.23,-119.66 39.67,-167.52 26.45,-47.87 62.98,-85.44 109.58,-112.73 46.6,-27.3 99.72,-40.94 159.34,-40.94 43.66,0 82.92,7.14 117.76,21.41 34.85,14.28 64.66,34.85 89.43,61.72 24.77,26.87 43.67,59.41 56.68,97.62 13.02,38.2 19.53,81.24 19.53,129.1 0,15.12 -5.25,26.66 -15.75,34.64 -10.49,7.98 -25.4,11.97 -44.71,11.97l-404.32 0 0 -90.69 353.94 0 -20.16 18.89c0,-38.63 -5.67,-70.96 -17,-96.99 -11.34,-26.03 -27.71,-45.97 -49.12,-59.83 -21.42,-13.85 -48.08,-20.78 -79.99,-20.78 -35.26,0 -65.28,8.19 -90.06,24.56 -24.77,16.38 -43.66,39.47 -56.68,69.28 -13.01,29.81 -19.52,65.29 -19.52,106.43l0 8.82c0,68.86 16.17,120.29 48.49,154.3 32.33,34 79.99,51.01 142.96,51.01 21.84,0 46.4,-2.73 73.69,-8.19 27.29,-5.46 53.11,-14.9 77.46,-28.34 17.64,-10.08 33.17,-14.48 46.61,-13.23 13.43,1.26 24.14,6.09 32.11,14.49 7.98,8.4 12.81,18.68 14.49,30.86 1.68,12.17 -0.63,24.56 -6.93,37.16 -6.3,12.59 -17,23.51 -32.12,32.74 -29.39,18.48 -63.19,32.12 -101.39,40.94 -38.21,8.82 -73.69,13.23 -106.43,13.23z"/>
        <path id="_8" fill="#E6E7E8" fill-rule="nonzero"
              d="M7392.46 1417.3c-22.68,0 -40.94,-5.46 -54.79,-16.38 -13.86,-10.91 -24.99,-28.13 -33.38,-51.64l-263.25 -744.4c-9.24,-26.87 -7.35,-49.54 5.67,-68.02 13.01,-18.47 35.06,-27.71 66.12,-27.71 22.68,0 40.31,5.25 52.91,15.75 12.59,10.49 22.67,27.08 30.23,49.75l226.72 672.61 -50.39 0 236.8 -671.35c8.4,-22.67 18.89,-39.47 31.49,-50.38 12.6,-10.92 28.97,-16.38 49.12,-16.38 20.16,0 36.11,5.46 47.87,16.38 11.75,10.91 21.83,28.13 30.23,51.64l229.24 670.09 -44.09 0 230.5 -672.61c7.56,-21.83 17.63,-38.21 30.23,-49.12 12.6,-10.92 29.81,-16.38 51.64,-16.38 26.87,0 46.61,9.24 59.2,27.71 12.6,18.48 14.28,41.15 5.04,68.02l-265.77 745.66c-8.39,22.67 -19.31,39.47 -32.75,50.38 -13.43,10.92 -31.49,16.38 -54.16,16.38 -22.67,0 -40.72,-5.46 -54.16,-16.38 -13.43,-10.91 -24.35,-28.13 -32.75,-51.64l-219.16 -624.74 28.97 0 -221.68 626c-8.4,22.67 -19.11,39.47 -32.12,50.38 -13.02,10.92 -30.86,16.38 -53.53,16.38z"/>
        <path id="_9" fill="#E6E7E8" fill-rule="nonzero"
              d="M8691.07 1419.82c-69.7,0 -129.74,-13.02 -180.12,-39.05 -50.38,-26.03 -89.22,-62.98 -116.51,-110.84 -27.29,-47.87 -40.94,-104.55 -40.94,-170.04 0,-63.82 13.23,-119.66 39.68,-167.52 26.45,-47.87 62.98,-85.44 109.58,-112.73 46.6,-27.3 99.72,-40.94 159.34,-40.94 43.66,0 82.92,7.14 117.76,21.41 34.85,14.28 64.66,34.85 89.43,61.72 24.77,26.87 43.67,59.41 56.68,97.62 13.02,38.2 19.53,81.24 19.53,129.1 0,15.12 -5.25,26.66 -15.75,34.64 -10.49,7.98 -25.4,11.97 -44.71,11.97l-404.32 0 0 -90.69 353.94 0 -20.16 18.89c0,-38.63 -5.67,-70.96 -17,-96.99 -11.34,-26.03 -27.71,-45.97 -49.12,-59.83 -21.42,-13.85 -48.08,-20.78 -79.99,-20.78 -35.26,0 -65.28,8.19 -90.06,24.56 -24.77,16.38 -43.66,39.47 -56.68,69.28 -13.01,29.81 -19.52,65.29 -19.52,106.43l0 8.82c0,68.86 16.17,120.29 48.49,154.3 32.33,34 79.99,51.01 142.96,51.01 21.84,0 46.4,-2.73 73.69,-8.19 27.29,-5.46 53.11,-14.9 77.46,-28.34 17.64,-10.08 33.17,-14.48 46.61,-13.23 13.43,1.26 24.14,6.09 32.11,14.49 7.98,8.4 12.81,18.68 14.49,30.86 1.68,12.17 -0.63,24.56 -6.93,37.16 -6.3,12.59 -17,23.51 -32.12,32.74 -29.39,18.48 -63.19,32.12 -101.39,40.94 -38.21,8.82 -73.69,13.23 -106.43,13.23z"/>
        <path id="_10" fill="#E6E7E8" fill-rule="nonzero"
              d="M9425.39 1419.82c-52.06,0 -97.62,-13.02 -136.66,-39.05 -39.05,-26.03 -64.87,-60.88 -77.47,-104.54l13.86 -31.49 0 91.94c0,26.04 -6.72,45.98 -20.16,59.83 -13.43,13.86 -32.32,20.79 -56.68,20.79 -25.19,0 -44.5,-6.93 -57.94,-20.79 -13.43,-13.85 -20.15,-33.79 -20.15,-59.83l0 -748.17c0,-26.03 6.72,-45.77 20.15,-59.2 13.44,-13.44 32.75,-20.16 57.94,-20.16 25.2,0 44.72,6.72 58.57,20.16 13.86,13.43 20.79,33.17 20.79,59.2l0 327.48 -15.12 0c13.44,-41.14 39.47,-74.31 78.09,-99.5 38.63,-25.19 83.56,-37.79 134.78,-37.79 54.58,0 102.02,13.02 142.33,39.05 40.29,26.03 71.78,62.76 94.45,110.21 22.68,47.44 34.01,104.33 34.01,170.67 0,65.49 -11.33,122.39 -34.01,170.67 -22.67,48.28 -54.37,85.44 -95.08,111.47 -40.73,26.03 -87.96,39.05 -141.7,39.05zm-44.09 -119.66c31.07,0 58.36,-7.56 81.87,-22.67 23.52,-15.12 41.78,-37.58 54.79,-67.39 13.02,-29.81 19.53,-66.97 19.53,-111.47 0,-67.18 -14.28,-117.35 -42.83,-150.52 -28.55,-33.17 -66.33,-49.75 -113.36,-49.75 -31.07,0 -58.36,7.35 -81.87,22.04 -23.51,14.69 -41.77,36.95 -54.79,66.76 -13.01,29.81 -19.52,66.96 -19.52,111.47 0,66.33 14.27,116.51 42.82,150.52 28.55,34 66.34,51.01 113.36,51.01z"/>
 </g>
</svg>
